<?xml version="1.0" standalone="no"?>
<!DOCTYPE svg PUBLIC "-//W3C//DTD SVG 20010904//EN"
 "http://www.w3.org/TR/2001/REC-SVG-20010904/DTD/svg10.dtd">
<svg version="1.0" xmlns="http://www.w3.org/2000/svg"
 width="500.000000pt" height="500.000000pt" viewBox="0 0 500.000000 500.000000"
 preserveAspectRatio="xMidYMid meet">

<g transform="translate(0.000000,500.000000) scale(0.100000,-0.100000)"
fill="#000000" stroke="none">
<path d="M150 2500 l0 -2350 2350 0 2350 0 0 2350 0 2350 -2350 0 -2350 0 0
-2350z m1618 1518 c164 -59 306 -190 372 -343 l19 -45 -148 0 -148 0 -27 40
c-58 88 -166 136 -290 128 -167 -11 -294 -133 -327 -311 -23 -124 16 -242 111
-338 70 -71 139 -99 245 -99 127 0 226 48 284 138 53 82 53 82 -119 82 l-150
0 0 100 0 100 300 0 300 0 0 -45 c0 -25 -7 -81 -16 -123 -73 -360 -439 -578
-789 -471 -191 57 -357 221 -416 409 -26 80 -35 215 -20 292 44 239 224 437
452 498 107 29 267 24 367 -12z m1292 -103 l0 -125 -215 0 -215 0 0 -120 0
-120 205 0 205 0 0 -120 0 -120 -205 0 -205 0 0 -125 0 -125 215 0 215 0 0
-120 0 -120 -350 0 -350 0 0 610 0 610 350 0 350 0 0 -125z m1080 0 l0 -125
-175 0 -175 0 0 -485 0 -485 -130 0 -130 0 0 485 0 485 -175 0 -175 0 0 125 0
125 480 0 480 0 0 -125z m-3402 -2147 l2 -488 215 0 215 0 0 -120 0 -120 -350
0 -350 0 0 610 0 611 133 -3 132 -3 3 -487z m1066 132 c109 -198 205 -368 212
-377 11 -15 13 42 14 360 l0 377 130 0 130 0 0 -610 0 -610 -133 0 -132 0
-205 372 -205 372 -3 -372 -2 -372 -135 0 -135 0 0 610 0 610 133 0 133 0 198
-360z m976 89 l5 -266 190 268 189 269 169 0 c102 0 167 -4 165 -9 -1 -6 -105
-143 -231 -306 l-227 -297 72 -91 c40 -51 144 -182 232 -292 87 -110 163 -206
169 -212 7 -10 -28 -13 -171 -13 l-181 0 -188 266 -188 266 -3 -266 -2 -266
-135 0 -135 0 0 610 0 611 133 -3 132 -3 5 -266z m1355 246 c201 -56 360 -214
421 -420 22 -73 25 -236 5 -315 -54 -222 -234 -398 -456 -445 -49 -10 -134
-15 -282 -15 l-213 0 0 603 c0 332 3 607 8 611 4 5 108 6 232 3 165 -4 241
-10 285 -22z"/>
<path d="M3880 1650 l0 -362 88 4 c106 5 180 36 237 100 113 125 128 336 32
471 -65 92 -144 132 -278 143 l-79 7 0 -363z"/>
</g>
</svg>
